<?xml version="1.0" standalone="no"?>
<!DOCTYPE svg PUBLIC "-//W3C//DTD SVG 20010904//EN"
 "http://www.w3.org/TR/2001/REC-SVG-20010904/DTD/svg10.dtd">
<svg version="1.0" xmlns="http://www.w3.org/2000/svg"
 width="16.000000pt" height="16.000000pt" viewBox="0 0 16.000000 16.000000"
 preserveAspectRatio="xMidYMid meet">
<metadata>
Created by potrace 1.11, written by Peter Selinger 2001-2013
</metadata>
<g transform="translate(0.000000,16.000000) scale(0.002402,-0.002402)"
fill="#000000" stroke="none">
<path d="M3149 6036 c-2 -2 -40 -7 -84 -10 -99 -9 -155 -17 -294 -43 -92 -17
-331 -91 -456 -141 -444 -178 -868 -509 -1163 -910 -152 -205 -283 -456 -371
-704 -28 -80 -76 -247 -87 -301 -8 -40 -33 -181 -38 -212 -27 -163 -28 -617
-2 -750 2 -11 7 -42 10 -70 11 -77 63 -289 97 -395 108 -328 303 -677 518
-925 68 -78 277 -281 351 -341 414 -335 916 -541 1440 -592 99 -9 424 -9 525
1 92 8 129 14 203 28 29 6 65 12 80 14 47 6 223 55 317 87 672 231 1232 720
1546 1349 129 258 233 586 263 829 3 25 9 74 13 110 16 132 8 530 -12 653 -4
23 -21 121 -31 172 -21 118 -93 353 -148 485 -60 143 -216 430 -268 495 -5 6
-32 42 -60 80 -87 118 -137 175 -268 305 -311 311 -659 525 -1070 658 -166 54
-333 93 -460 107 -25 3 -61 8 -80 11 -39 7 -465 16 -471 10z m426 -100 c228
-24 492 -86 690 -163 749 -292 1329 -918 1560 -1683 114 -376 140 -797 75
-1191 l-11 -66 -572 1 -572 0 -5 -289 -5 -289 -239 297 c-131 164 -243 300
-247 303 -5 3 -9 -182 -9 -415 l0 -421 44 0 c33 0 45 4 48 17 2 10 3 138 3
285 -1 148 1 268 5 268 3 0 75 -87 160 -192 85 -106 157 -195 160 -198 3 -3
40 -49 83 -102 43 -53 81 -99 85 -102 4 -2 7 163 7 367 l0 372 505 3 c278 1
510 0 516 -2 19 -7 -46 -224 -124 -411 -261 -625 -765 -1131 -1397 -1400 -312
-132 -644 -199 -1000 -199 -125 0 -321 10 -334 18 -3 2 -30 7 -60 10 -184 22
-452 99 -651 187 -285 126 -557 310 -770 520 -146 145 -177 180 -273 308 -271
363 -436 764 -502 1221 -27 189 -24 566 5 722 6 29 12 67 15 83 24 183 120
476 227 693 l51 102 322 0 322 0 1 -347 c1 -192 1 -353 2 -360 0 -12 73 -13
85 -2 3 4 6 165 6 358 l0 351 114 0 115 0 0 48 0 48 -454 0 -455 -1 21 35 c23
37 158 232 167 240 3 3 30 34 60 70 236 284 610 559 965 710 246 104 552 179
796 197 47 3 86 6 87 7 6 5 315 -2 378 -8z"/>
<path d="M2053 4681 c-7 -5 -10 -742 -4 -797 0 -7 18 -11 44 -10 l42 1 3 178
2 177 180 0 180 0 0 -180 0 -179 45 2 45 2 0 406 0 406 -45 -1 -45 -1 0 -177
c0 -162 -2 -178 -17 -179 -10 -1 -91 -2 -180 -3 l-163 -1 0 180 0 180 -39 1
c-22 1 -44 -2 -48 -5z"/>
<path d="M2702 4680 c-6 -4 -9 -750 -3 -795 2 -15 511 -16 512 -1 2 13 2 68 0
79 -1 4 -95 7 -211 7 l-210 0 0 130 0 130 212 2 212 3 1 48 1 47 -213 0 -213
0 0 130 0 130 213 2 212 3 0 45 -1 45 -252 0 c-139 0 -256 -2 -260 -5z"/>
<path d="M1896 3750 c-96 -25 -200 -102 -253 -190 -52 -86 -69 -231 -37 -326
37 -111 119 -205 222 -251 75 -34 195 -42 274 -19 64 18 168 84 193 122 17 26
17 27 -15 58 l-32 31 -15 -23 c-22 -32 -91 -78 -143 -96 -67 -23 -174 -16
-236 16 -164 85 -224 283 -132 439 59 100 149 151 268 153 90 0 163 -29 225
-92 l40 -40 32 34 31 34 -46 46 c-71 68 -154 104 -254 109 -46 2 -100 0 -122
-5z"/>
<path d="M2690 3753 c-143 -20 -260 -104 -323 -233 -30 -60 -32 -72 -32 -170
0 -99 2 -110 32 -171 127 -258 459 -315 655 -112 208 214 124 567 -159 667
-43 15 -130 25 -173 19z m179 -123 c190 -97 236 -333 95 -489 -150 -167 -415
-128 -515 76 -19 39 -24 64 -24 133 0 73 4 92 27 136 82 156 268 221 417 144z"/>
<path d="M3857 3749 c-111 -27 -218 -117 -269 -224 -59 -127 -47 -286 32 -399
144 -209 441 -236 619 -58 216 216 123 587 -170 675 -53 16 -159 19 -212 6z
m232 -113 c195 -99 237 -349 84 -502 -152 -153 -404 -112 -499 82 -105 216 57
461 298 449 46 -3 82 -12 117 -29z"/>
<path d="M3218 3742 c0 -4 -2 -181 -3 -395 l-1 -387 210 2 211 3 1 42 c0 30
-4 43 -15 45 -9 2 -82 4 -163 3 l-148 0 -1 55 c0 30 0 186 0 346 l0 291 -45 1
c-24 1 -45 -2 -46 -6z"/>
<path d="M2499 2677 c-42 -100 -121 -287 -174 -414 l-97 -233 -112 168 -112
167 36 11 c60 18 100 46 131 93 30 46 31 48 34 121 5 101 -52 182 -153 220
-51 20 -79 22 -255 23 -110 1 -201 -1 -203 -5 -3 -4 4 -20 15 -35 39 -56 221
-334 221 -338 0 -3 -33 -5 -73 -5 l-72 0 0 -212 0 -213 46 -3 47 -3 0 138 c0
76 1 152 1 168 1 30 1 30 59 30 l57 0 110 -165 110 -165 105 -3 106 -3 21 50
21 50 211 1 212 0 22 -50 22 -50 52 0 52 0 -35 83 c-19 45 -98 234 -176 420
-79 185 -145 337 -148 337 -3 0 -39 -82 -81 -183z m-459 38 c51 -31 72 -65 72
-120 0 -57 -23 -92 -73 -116 -75 -37 -83 -35 -125 29 -20 31 -61 93 -90 138
-30 44 -54 84 -54 88 0 5 53 7 118 4 94 -3 125 -8 152 -23z m625 -290 c22 -49
85 -203 85 -209 0 -2 -76 -4 -170 -4 -93 1 -170 3 -170 4 0 6 160 386 167 397
3 5 21 -28 40 -74 19 -46 40 -97 48 -114z"/>
<path d="M3830 2803 c-12 -32 -29 -71 -36 -88 -8 -16 -76 -180 -153 -362
l-139 -333 51 0 52 0 22 50 22 50 211 0 212 -1 21 -49 21 -50 48 0 c26 0 48 4
48 9 0 5 -24 66 -54 137 -30 71 -73 174 -96 229 -22 55 -49 118 -59 140 -10
22 -44 104 -77 182 -32 78 -62 143 -65 143 -3 0 -16 -26 -29 -57z m119 -390
c45 -106 81 -194 81 -197 0 -2 -77 -4 -171 -4 -127 0 -169 3 -167 12 10 42
164 393 170 388 3 -4 43 -94 87 -199z"/>
<path d="M2986 2830 c-10 -4 -12 -89 -12 -408 l0 -403 131 1 c178 2 259 30
340 116 83 87 118 243 89 395 -29 151 -120 251 -264 289 -44 12 -259 19 -284
10z m310 -118 c56 -28 103 -77 128 -132 27 -59 32 -213 9 -283 -36 -109 -136
-176 -267 -181 -39 -2 -77 -1 -83 2 -10 3 -13 75 -13 314 l0 311 93 -5 c67 -4
103 -11 133 -26z"/>
</g>
</svg>
